<?xml version="1.0" encoding="utf-8"?>
<!-- Generator: Adobe Illustrator 27.5.0, SVG Export Plug-In . SVG Version: 6.00 Build 0)  -->
<svg version="1.1" id="Layer_1" xmlns="http://www.w3.org/2000/svg" xmlns:xlink="http://www.w3.org/1999/xlink" x="0px" y="0px"
	 viewBox="0 0 300 130" style="enable-background:new 0 0 300 130;" xml:space="preserve">
<style type="text/css">
	.st0{fill:#21214F;}
	.st1{fill:#4F13E1;}
	.st2{fill:#10B6BE;}
	.st3{fill:#E1EAE8;}
	.st4{fill:#F0F9FC;}
	.st5{fill:#FFFFFF;}
	.st6{fill:#3B0EA8;}
	.st7{fill:#290A75;}
	.st8{fill:#B82652;}
	.st9{fill:#851024;}
	.st10{fill:#E6CE41;}
	.st11{fill:#E56542;}
	.st12{fill:#3EB758;}
	.st13{fill:#1B874C;}
</style>
<g>
	<path class="st0" d="M123.6,13.6h8.4c4,0,6.1,2.3,6.1,6.1c0,2.6-1.2,4.6-3.1,5.6l3.6,6.3v1.4h-4.2l-4-7.2h-2.6v7.2h-4.3V13.6z
		 M131.2,22.2c1.6,0,2.5-0.6,2.5-2.5c0-1.8-0.9-2.4-2.5-2.4h-3.4v4.9H131.2z"/>
	<path class="st0" d="M139.7,31.5l6.5-17.9h4.2l6.6,17.9v1.4h-4.2l-1.4-4.4h-6.2l-1.5,4.4h-3.9V31.5z M150,25l-1.8-5.6l-1.8,5.6H150
		z"/>
	<rect x="158.6" y="13.6" class="st0" width="4.3" height="19.3"/>
	<polygon class="st0" points="165.6,13.6 169.9,13.6 169.9,29.2 178.5,29.2 178.5,32.9 165.6,32.9 	"/>
	<path class="st0" d="M122.3,54.4h4.3c0,2.2,2.2,2.8,3.8,2.8c1.9,0,2.8-0.7,2.8-1.8c0-1.2-1.3-1.6-3.7-2.4l-1.5-0.5
		c-2.4-0.8-5.2-2.1-5.2-5.5c0-3.6,2.7-5.9,7.2-5.9c4.2,0,7.3,2.1,7.3,6.6H133c0-1.9-1.5-2.7-3.1-2.7c-1.8,0-2.8,0.7-2.8,1.8
		c0,1.4,1.4,1.6,3.2,2.2l1.4,0.5c3.1,1.1,5.8,2.4,5.8,5.7c0,3.4-2.5,6-7.5,6C125.8,61,122.3,58.8,122.3,54.4"/>
	<path class="st0" d="M138.3,59.2l6.5-17.9h4.2l6.6,17.9v1.4h-4.2l-1.4-4.4h-6.2l-1.5,4.4h-3.9V59.2z M148.6,52.7l-1.8-5.6l-1.8,5.6
		H148.6z"/>
	<polygon class="st0" points="157.2,41.3 170.1,41.3 170.1,45 161.4,45 161.4,49.4 168.8,49.4 168.8,53 161.4,53 161.4,60.6 
		157.2,60.6 	"/>
	<polygon class="st0" points="171.9,41.3 184.6,41.3 184.6,45 176.2,45 176.2,49.2 183.4,49.2 183.4,52.7 176.2,52.7 176.2,56.9 
		184.7,56.9 184.7,60.6 171.9,60.6 	"/>
	<polygon class="st0" points="191.2,45 185.9,45 185.9,41.3 200.8,41.3 200.8,45 195.5,45 195.5,60.6 191.2,60.6 	"/>
	<polygon class="st0" points="208.1,53 201.9,42.7 201.9,41.3 206.1,41.3 210.3,49 214.7,41.3 218.6,41.3 218.6,42.7 212.4,52.8 
		212.4,60.6 208.1,60.6 	"/>
	<path class="st0" d="M223.4,59.2l6.5-17.9h4.2l6.6,17.9v1.4h-4.2l-1.4-4.4h-6.2l-1.5,4.4h-3.9V59.2z M233.7,52.7l-1.8-5.6l-1.8,5.6
		H233.7z"/>
	<polygon class="st0" points="242.3,41.3 246.2,41.3 253.1,52.6 253.1,41.3 257.3,41.3 257.3,60.6 253.4,60.6 246.6,49.3 
		246.6,60.6 242.3,60.6 	"/>
	<path class="st0" d="M259.6,41.3h7.1c4.8,0,7.8,2.4,7.8,6.6V54c0,4.3-3,6.6-7.8,6.6h-7.1V41.3z M266.6,56.9c2.3,0,3.5-1.4,3.5-2.8
		v-6.3c0-1.4-1.1-2.8-3.5-2.8h-2.8v11.9H266.6z"/>
	<path class="st0" d="M122.3,82h4.3c0,2.2,2.2,2.8,3.8,2.8c1.9,0,2.8-0.7,2.8-1.8c0-1.2-1.3-1.6-3.7-2.4L128,80
		c-2.4-0.8-5.2-2.1-5.2-5.5c0-3.6,2.7-5.9,7.2-5.9c4.2,0,7.3,2.1,7.3,6.6H133c0-1.9-1.5-2.7-3.1-2.7c-1.8,0-2.8,0.7-2.8,1.8
		c0,1.4,1.4,1.6,3.2,2.2l1.4,0.5c3.1,1.1,5.8,2.4,5.8,5.7c0,3.4-2.5,6-7.5,6C125.8,88.7,122.3,86.5,122.3,82"/>
	<polygon class="st0" points="143.8,72.7 138.5,72.7 138.5,69 153.4,69 153.4,72.7 148.1,72.7 148.1,88.3 143.8,88.3 	"/>
	<path class="st0" d="M151.4,86.9l6.5-17.9h4.2l6.6,17.9v1.4h-4.2l-1.4-4.4h-6.2l-1.5,4.4h-3.9V86.9z M161.7,80.4l-1.8-5.6l-1.8,5.6
		H161.7z"/>
	<polygon class="st0" points="170.2,69 174.2,69 181,80.3 181,69 185.3,69 185.3,88.3 181.4,88.3 174.5,77 174.5,88.3 170.2,88.3 	
		"/>
	<path class="st0" d="M188.1,69h7.1c4.8,0,7.8,2.4,7.8,6.6v6.1c0,4.3-3,6.6-7.8,6.6h-7.1V69z M195.2,84.6c2.3,0,3.5-1.4,3.5-2.8
		v-6.3c0-1.4-1.1-2.8-3.5-2.8h-2.8v11.9H195.2z"/>
	<path class="st0" d="M203.6,86.9l6.5-17.9h4.2l6.6,17.9v1.4h-4.2l-1.4-4.4h-6.2l-1.5,4.4h-3.9V86.9z M213.9,80.4l-1.8-5.6l-1.8,5.6
		H213.9z"/>
	<path class="st0" d="M222.5,69h8.4c4,0,6.1,2.3,6.1,6.1c0,2.6-1.2,4.6-3.1,5.6l3.6,6.3v1.4h-4.2l-4-7.2h-2.6v7.2h-4.3V69z
		 M230.2,77.6c1.6,0,2.5-0.6,2.5-2.5c0-1.8-0.9-2.4-2.5-2.4h-3.4v4.9H230.2z"/>
	<path class="st0" d="M239.5,69h7.1c4.8,0,7.8,2.4,7.8,6.6v6.1c0,4.3-3,6.6-7.8,6.6h-7.1V69z M246.6,84.6c2.3,0,3.5-1.4,3.5-2.8
		v-6.3c0-1.4-1.1-2.8-3.5-2.8h-2.8v11.9H246.6z"/>
	<path class="st0" d="M255.9,82h4.3c0,2.2,2.2,2.8,3.8,2.8c1.9,0,2.8-0.7,2.8-1.8c0-1.2-1.3-1.6-3.7-2.4l-1.5-0.5
		c-2.4-0.8-5.2-2.1-5.2-5.5c0-3.6,2.7-5.9,7.2-5.9c4.2,0,7.3,2.1,7.3,6.6h-4.3c0-1.9-1.5-2.7-3.1-2.7c-1.8,0-2.8,0.7-2.8,1.8
		c0,1.4,1.4,1.6,3.2,2.2l1.4,0.5c3.1,1.1,5.8,2.4,5.8,5.7c0,3.4-2.5,6-7.5,6C259.5,88.7,255.9,86.5,255.9,82"/>
	<path class="st0" d="M123.6,96.7h8.2c3.6,0,5.8,1.8,5.8,5.4c0,1.8-0.7,3.1-2.1,3.9c1.5,0.7,2.9,1.9,2.9,4.6c0,3.7-2.3,5.5-5.8,5.5
		h-9V96.7z M131.4,104.7c0.9,0,1.8-0.6,1.8-2.1s-0.9-2.2-1.8-2.2h-3.6v4.3H131.4z M132.4,112.2c0.8,0,1.7-0.6,1.7-2
		c0-1.5-0.9-2-1.7-2h-4.5v4H132.4z"/>
	<path class="st0" d="M155.6,103.3v6.2c0,4.4-3,7-7.8,7c-4.7,0-7.8-2.6-7.8-7v-6.2c0-4.4,3-7,7.8-7
		C152.5,96.2,155.6,98.8,155.6,103.3 M151.3,109.6V103c0-1.4-1-2.9-3.5-2.9c-2.5,0-3.5,1.5-3.5,2.9v6.6c0,1.4,1,2.9,3.5,2.9
		C150.3,112.5,151.3,111,151.3,109.6"/>
	<path class="st0" d="M156.3,114.6l6.5-17.9h4.2l6.6,17.9v1.4h-4.2l-1.4-4.4h-6.2l-1.5,4.4h-3.9V114.6z M166.6,108l-1.8-5.6L163,108
		H166.6z"/>
	<path class="st0" d="M175.2,96.7h8.4c4,0,6.1,2.3,6.1,6.1c0,2.6-1.2,4.6-3.1,5.6l3.6,6.3v1.4H186l-4-7.2h-2.6v7.2h-4.3V96.7z
		 M182.8,105.2c1.6,0,2.5-0.6,2.5-2.5c0-1.8-0.9-2.4-2.5-2.4h-3.4v4.9H182.8z"/>
	<path class="st0" d="M192.2,96.7h7.1c4.8,0,7.8,2.4,7.8,6.6v6.1c0,4.3-3,6.6-7.8,6.6h-7.1V96.7z M199.2,112.2
		c2.3,0,3.5-1.4,3.5-2.8v-6.3c0-1.4-1.1-2.8-3.5-2.8h-2.8v11.9H199.2z"/>
	<path class="st2" d="M65.5,58.9H25.6V43.1H74l-5.5,13.8C68,58.1,66.8,58.9,65.5,58.9"/>
	<rect x="25.6" y="13.6" class="st2" width="82.1" height="15.8"/>
	<path class="st1" d="M89.5,43.1l-9.8,24.2c-1.3,3.2-4.4,5.3-7.9,5.3H25.6v15.8h49.2c7.8,0,14.9-4.8,17.8-12l13.3-33.3H89.5z"/>
</g>
<g>
	<g>
		<defs>
			<rect id="SVGID_00000178200271221852051750000002249976490823753123_" x="-925.9" width="900" height="401.6"/>
		</defs>
		<clipPath id="SVGID_00000013880097006210919640000010771102544722554283_">
			<use xlink:href="#SVGID_00000178200271221852051750000002249976490823753123_"  style="overflow:visible;"/>
		</clipPath>
		<g style="clip-path:url(#SVGID_00000013880097006210919640000010771102544722554283_);">
			
				<image style="overflow:visible;" width="7054" height="4708" xlink:href="../../../../../../../Users/laurensimms/Downloads/shutterstock_2298152373.jpg"  transform="matrix(0.1355 0 0 0.1355 -941.3516 -200.5347)">
			</image>
		</g>
	</g>
</g>
</svg>
